HIERARCHY
ROOT hip
{
  OFFSET 0 0 0
  CHANNELS 6 Xposition Yposition Zposition Zrotation Yrotation Xrotation
  JOINT abdomen
  {
    OFFSET 0 20.6881 -0.73152
    CHANNELS 3 Zrotation Xrotation Yrotation
    JOINT chest
    {
      OFFSET 0 11.7043 -0.48768
      CHANNELS 3 Zrotation Xrotation Yrotation
      JOINT neck
      {
        OFFSET 0 22.1894 -2.19456
        CHANNELS 3 Zrotation Xrotation Yrotation
        JOINT head
        {
          OFFSET -0.24384 7.07133 1.2192
          CHANNELS 3 Zrotation Xrotation Yrotation
          JOINT leftEye
          {
            OFFSET 4.14528 8.04674 8.04672
            CHANNELS 3 Zrotation Xrotation Yrotation
            End Site
            {
              OFFSET 1 0 0
            }
          }
          JOINT rightEye
          {
            OFFSET -3.6576 8.04674 8.04672
            CHANNELS 3 Zrotation Xrotation Yrotation
            End Site
            {
              OFFSET 1 0 0
            }
          }
        }
      }
      JOINT rCollar
      {
        OFFSET -2.68224 19.2634 -4.8768
        CHANNELS 3 Zrotation Xrotation Yrotation
        JOINT rShldr
        {
          OFFSET -8.77824 -1.95073 1.46304
          CHANNELS 3 Zrotation Xrotation Yrotation
          JOINT rForeArm
          {
            OFFSET -28.1742 -1.7115 0.48768
            CHANNELS 3 Zrotation Xrotation Yrotation
            JOINT rHand
            {
              OFFSET -22.5879 0.773209 7.07136
              CHANNELS 3 Zrotation Xrotation Yrotation
              JOINT rThumb1
              {
                OFFSET -1.2192 -0.487915 3.41376
                CHANNELS 3 Zrotation Xrotation Yrotation
                JOINT rThumb2
                {
                  OFFSET -3.37035 -0.52449 3.41376
                  CHANNELS 3 Zrotation Xrotation Yrotation
                  End Site
                  {
                    OFFSET -1.78271 -1.18214 1.43049
                  }
                }
              }
              JOINT rIndex1
              {
                OFFSET -7.75947 0.938293 5.60832
                CHANNELS 3 Zrotation Xrotation Yrotation
                JOINT rIndex2
                {
                  OFFSET -2.54057 -0.884171 1.56538
                  CHANNELS 3 Zrotation Xrotation Yrotation
                  End Site
                  {
                    OFFSET -1.62519 -0.234802 1.16502
                  }
                }
              }
              JOINT rMid1
              {
                OFFSET -8.24714 1.18213 3.41376
                CHANNELS 3 Zrotation Xrotation Yrotation
                JOINT rMid2
                {
                  OFFSET -3.10165 -0.590103 1.0647
                  CHANNELS 3 Zrotation Xrotation Yrotation
                  End Site
                  {
                    OFFSET -2.48547 -0.328903 0.83742
                  }
                }
              }
              JOINT rRing1
              {
                OFFSET -8.82822 0.546677 1.51678
                CHANNELS 3 Zrotation Xrotation Yrotation
                JOINT rRing2
                {
                  OFFSET -2.60934 -0.819778 -0.0198488
                  CHANNELS 3 Zrotation Xrotation Yrotation
                  End Site
                  {
                    OFFSET -2.33842 -0.294052 0.168128
                  }
                }
              }
              JOINT rPinky1
              {
                OFFSET -8.27202 -0.0477905 -0.4584
                CHANNELS 3 Zrotation Xrotation Yrotation
                JOINT rPinky2
                {
                  OFFSET -1.82734 -0.647385 -0.700984
                  CHANNELS 3 Zrotation Xrotation Yrotation
                  End Site
                  {
                    OFFSET -1.69225 -0.51767 -0.607171
                  }
                }
              }
            }
          }
        }
      }
      JOINT lCollar
      {
        OFFSET 2.68224 19.2634 -4.8768
        CHANNELS 3 Zrotation Xrotation Yrotation
        JOINT lShldr
        {
          OFFSET 8.77824 -1.95073 1.46304
          CHANNELS 3 Zrotation Xrotation Yrotation
          JOINT lForeArm
          {
            OFFSET 28.1742 -1.7115 0.48768
            CHANNELS 3 Zrotation Xrotation Yrotation
            JOINT lHand
            {
              OFFSET 22.5879 0.773209 7.07136
              CHANNELS 3 Zrotation Xrotation Yrotation
              JOINT lThumb1
              {
                OFFSET 1.2192 -0.487915 3.41376
                CHANNELS 3 Zrotation Xrotation Yrotation
                JOINT lThumb2
                {
                  OFFSET 3.37035 -0.52449 3.41376
                  CHANNELS 3 Zrotation Xrotation Yrotation
                  End Site
                  {
                    OFFSET 1.78271 -1.18214 1.43049
                  }
                }
              }
              JOINT lIndex1
              {
                OFFSET 7.75947 0.938293 5.60832
                CHANNELS 3 Zrotation Xrotation Yrotation
                JOINT lIndex2
                {
                  OFFSET 2.54057 -0.884171 1.56538
                  CHANNELS 3 Zrotation Xrotation Yrotation
                  End Site
                  {
                    OFFSET 1.62519 -0.234802 1.16502
                  }
                }
              }
              JOINT lMid1
              {
                OFFSET 8.24714 1.18213 3.41376
                CHANNELS 3 Zrotation Xrotation Yrotation
                JOINT lMid2
                {
                  OFFSET 3.10165 -0.590103 1.0647
                  CHANNELS 3 Zrotation Xrotation Yrotation
                  End Site
                  {
                    OFFSET 2.48547 -0.328903 0.83742
                  }
                }
              }
              JOINT lRing1
              {
                OFFSET 8.82822 0.546677 1.51678
                CHANNELS 3 Zrotation Xrotation Yrotation
                JOINT lRing2
                {
                  OFFSET 2.60934 -0.819778 -0.0198488
                  CHANNELS 3 Zrotation Xrotation Yrotation
                  End Site
                  {
                    OFFSET 2.33842 -0.294052 0.168128
                  }
                }
              }
              JOINT lPinky1
              {
                OFFSET 8.27202 -0.0477905 -0.4584
                CHANNELS 3 Zrotation Xrotation Yrotation
                JOINT lPinky2
                {
                  OFFSET 1.82734 -0.647385 -0.700984
                  CHANNELS 3 Zrotation Xrotation Yrotation
                  End Site
                  {
                    OFFSET 1.69225 -0.51767 -0.607171
                  }
                }
              }
            }
          }
        }
      }
    }
  }
  JOINT rButtock
  {
    OFFSET -8.77824 4.35084 1.2192
    CHANNELS 3 Zrotation Xrotation Yrotation
    JOINT rThigh
    {
      OFFSET 0 -1.70687 -2.19456
      CHANNELS 3 Zrotation Xrotation Yrotation
      JOINT rShin
      {
        OFFSET 0 -36.8199 0.73152
        CHANNELS 3 Zrotation Xrotation Yrotation
        JOINT rFoot
        {
          OFFSET 0.73152 -45.1104 -5.12064
          CHANNELS 3 Zrotation Xrotation Yrotation
          End Site
          {
            OFFSET -1.1221 -3.69964 12.103
          }
        }
      }
    }
  }
  JOINT lButtock
  {
    OFFSET 8.77824 4.35084 1.2192
    CHANNELS 3 Zrotation Xrotation Yrotation
    JOINT lThigh
    {
      OFFSET 0 -1.70687 -2.19456
      CHANNELS 3 Zrotation Xrotation Yrotation
      JOINT lShin
      {
        OFFSET 0 -36.8199 0.73152
        CHANNELS 3 Zrotation Xrotation Yrotation
        JOINT lFoot
        {
          OFFSET -0.73152 -45.1104 -5.12064
          CHANNELS 3 Zrotation Xrotation Yrotation
          End Site
          {
            OFFSET 1.1221 -3.69964 12.103
          }
        }
      }
    }
  }
}
MOTION
Frames:	5
Frame Time:	0.00833333
128.202 83.3901 -26.1737 -181.918 -4.2772 -149.584 -1.40499 -18.2764 -5.33224 2.40023 1.60351 -1.86062 -7.8002 15.2877 0.119344 12.1125 -45.2327 6.42016 -0.0 0.0 0.0 -0.0 0.0 0.0 3.5515e-14 6.96386e-14 -3.1709e-13 8.69327 -31.6298 82.0563 -18.1741 -10.8752 34.4114 -0.212808 13.0289 1.86365 1.61828e-09 3.70472e-09 1.25767e-09 2.80929e-09 6.37928e-09 2.15549e-09 1.61828e-09 3.70472e-09 1.25766e-09 7.73091 5.47488 0.417314 1.61828e-09 3.70472e-09 1.25767e-09 2.90554 0.965183 0.102902 1.61828e-09 3.70472e-09 1.25766e-09 10.2786 0.731801 0.0259123 1.61828e-09 3.70472e-09 1.25767e-09 2.22167 -0.733487 -0.20892 3.53013e-14 6.96345e-14 -3.17464e-13 -12.2788 -35.3973 -84.6501 14.7681 -7.59149 -27.1117 0.959093 26.6651 -4.04697 -3.09164e-10 -3.98192e-09 1.52425e-09 -5.05622e-10 -6.89261e-09 2.63694e-09 -3.09165e-10 -3.98193e-09 1.52426e-09 -7.73091 5.47488 -0.417314 -3.09162e-10 -3.98192e-09 1.52425e-09 -2.90554 0.965183 -0.102902 -3.09164e-10 -3.98193e-09 1.52425e-09 -10.2786 0.731801 -0.0259123 -3.09157e-10 -3.98192e-09 1.52424e-09 -2.22167 -0.733487 0.20892 -2.03217e-16 0.0 -3.88251e-19 5.31472 -47.8055 9.37938 -0.132609 24.7122 0.331601 -2.07796 -2.69286 -10.8902 2.03217e-16 0.0 3.88251e-19 -3.47116 -17.724 -6.99499 0.0742198 22.6981 -0.43357 0.295045 -0.200452 -6.30664
128.161 83.3582 -26.1699 -181.933 -4.1295 -149.476 -1.38149 -18.1384 -5.32058 2.40915 1.56206 -1.85347 -7.80016 15.151 0.141415 11.9999 -45.404 6.50094 -0.0 0.0 0.0 -0.0 0.0 0.0 4.76408e-15 -1.04957e-13 -3.38928e-13 8.9535 -32.008 82.5139 -17.9921 -10.6782 34.0024 -0.215513 13.1089 1.87551 1.89715e-09 3.83125e-09 1.3688e-09 3.29074e-09 6.59161e-09 2.3433e-09 1.89715e-09 3.83125e-09 1.36879e-09 7.73091 5.47488 0.417314 1.89715e-09 3.83126e-09 1.3688e-09 2.90554 0.965183 0.102902 1.89715e-09 3.83125e-09 1.36879e-09 10.2786 0.731801 0.0259123 1.89714e-09 3.83125e-09 1.36881e-09 2.22167 -0.733487 -0.20892 4.57912e-15 -1.04959e-13 -3.39276e-13 -12.9256 -35.7595 -85.1318 14.627 -7.47163 -26.8243 0.993235 27.0864 -4.12175 -2.74072e-10 -4.11942e-09 1.41917e-09 -4.46703e-10 -7.12651e-09 2.45466e-09 -2.74074e-10 -4.11943e-09 1.41918e-09 -7.73091 5.47488 -0.417314 -2.7407e-10 -4.11942e-09 1.41917e-09 -2.90554 0.965183 -0.102902 -2.74072e-10 -4.11942e-09 1.41917e-09 -10.2786 0.731801 -0.0259123 -2.74065e-10 -4.11942e-09 1.41916e-09 -2.22167 -0.733487 0.20892 -2.03217e-16 0.0 -3.88251e-19 5.28639 -48.0323 9.32059 -0.134285 24.9022 0.337617 -2.08215 -2.81806 -10.7277 2.03217e-16 0.0 3.88251e-19 -3.5616 -17.7273 -7.0226 0.0723801 22.6008 -0.43528 0.293526 -0.317174 -6.21673
128.137 83.3216 -26.1754 -181.962 -3.873 -149.341 -1.3764 -18.045 -5.30437 2.35193 1.53544 -1.84488 -7.70936 15.0239 0.140426 11.9897 -45.5716 6.57471 -0.0 0.0 0.0 -0.0 0.0 0.0 -3.19753e-14 -3.88661e-13 -2.29138e-13 9.35781 -32.3746 83.0497 -17.8086 -10.4825 33.592 -0.215534 13.1086 1.87546 1.77185e-09 2.49309e-09 1.17951e-09 3.07075e-09 4.27923e-09 2.01699e-09 1.77185e-09 2.49309e-09 1.1795e-09 7.73091 5.47488 0.417314 1.77185e-09 2.49309e-09 1.17951e-09 2.90554 0.965183 0.102902 1.77186e-09 2.49309e-09 1.1795e-09 10.2786 0.731801 0.0259123 1.77185e-09 2.49309e-09 1.17951e-09 2.22167 -0.733487 -0.20892 -3.21333e-14 -3.88661e-13 -2.29452e-13 -13.3489 -36.1363 -85.5054 14.499 -7.36402 -26.5639 1.01794 27.3856 -4.17523 -3.44206e-10 -2.74916e-09 6.64524e-10 -5.82929e-10 -4.75856e-09 1.15362e-09 -3.44208e-10 -2.74917e-09 6.64538e-10 -7.73091 5.47488 -0.417314 -3.44205e-10 -2.74917e-09 6.64525e-10 -2.90554 0.965183 -0.102902 -3.44207e-10 -2.74916e-09 6.64524e-10 -10.2786 0.731801 -0.0259123 -3.44199e-10 -2.74916e-09 6.64514e-10 -2.22167 -0.733487 0.20892 -2.03217e-16 0.0 -3.88251e-19 5.32504 -48.2827 9.32637 -0.13603 25.0885 0.343028 -2.0779 -2.89056 -10.5747 2.03217e-16 0.0 3.88251e-19 -3.62986 -17.7451 -7.0107 0.0702536 22.485 -0.437084 0.293276 -0.426898 -6.13176
128.115 83.2794 -26.1922 -181.952 -3.6199 -149.205 -1.38156 -17.9779 -5.28584 2.24851 1.51903 -1.83542 -7.55319 14.9002 0.125592 12.0342 -45.7435 6.64392 -0.0 0.0 0.0 -0.0 0.0 0.0 -7.5608e-14 -7.63234e-13 -2.84759e-14 9.86388 -32.7407 83.6483 -17.623 -10.2875 33.1789 -0.213567 13.0493 1.86669 1.37726e-09 1.39642e-10 7.89863e-10 2.38326e-09 2.1637e-10 1.34768e-09 1.37727e-09 1.39637e-10 7.89854e-10 7.73091 5.47488 0.417314 1.37726e-09 1.39634e-10 7.89861e-10 2.90554 0.965183 0.102902 1.37727e-09 1.3964e-10 7.89859e-10 10.2786 0.731801 0.0259123 1.37726e-09 1.39642e-10 7.89869e-10 2.22167 -0.733487 -0.20892 -7.57342e-14 -7.63233e-13 -2.87461e-14 -13.6625 -36.534 -85.8336 14.3735 -7.25944 -26.3094 1.03858 27.6328 -4.21961 -4.90024e-10 -3.03164e-10 -5.64603e-10 -8.59558e-10 -5.34086e-10 -9.64686e-10 -4.90026e-10 -3.03168e-10 -5.64587e-10 -7.73091 5.47488 -0.417314 -4.90023e-10 -3.03169e-10 -5.646e-10 -2.90554 0.965183 -0.102902 -4.90024e-10 -3.03166e-10 -5.64601e-10 -10.2786 0.731801 -0.0259123 -4.90016e-10 -3.03163e-10 -5.64612e-10 -2.22167 -0.733487 0.20892 -2.03217e-16 0.0 -3.88251e-19 5.40317 -48.5535 9.36717 -0.137843 25.2753 0.348145 -2.06853 -2.93581 -10.4214 2.03217e-16 0.0 3.88251e-19 -3.68915 -17.7748 -6.98543 0.0679543 22.3589 -0.438967 0.294594 -0.533193 -6.04045
128.106 83.2431 -26.1984 -181.898 -3.5025 -149.059 -1.38311 -17.9117 -5.26705 2.15089 1.50285 -1.82612 -7.37708 14.7905 0.1214 12.0526 -45.9383 6.72599 -0.0 0.0 0.0 -0.0 0.0 0.0 -1.12166e-13 -1.08816e-12 1.73876e-13 10.3961 -33.1066 84.2749 -17.4402 -10.0977 32.7751 -0.211863 12.9982 1.85912 8.81646e-10 -2.23677e-09 3.53964e-10 1.52098e-09 -3.88419e-09 5.99773e-10 8.81651e-10 -2.23678e-09 3.53955e-10 7.73091 5.47488 0.417314 8.81645e-10 -2.23679e-09 3.53957e-10 2.90554 0.965183 0.102902 8.81651e-10 -2.23677e-09 3.53962e-10 10.2786 0.731801 0.0259123 8.81641e-10 -2.23677e-09 3.53969e-10 2.22167 -0.733487 -0.20892 -1.12265e-13 -1.08816e-12 1.73648e-13 -13.9963 -36.9456 -86.1733 14.2441 -7.15278 -26.0472 1.06009 27.8906 -4.26596 -6.14158e-10 2.14804e-09 -1.74578e-09 -1.09766e-09 3.69966e-09 -3.0007e-09 -6.1416e-10 2.14804e-09 -1.74577e-09 -7.73091 5.47488 -0.417314 -6.14158e-10 2.14803e-09 -1.74578e-09 -2.90554 0.965183 -0.102902 -6.14159e-10 2.14804e-09 -1.74578e-09 -10.2786 0.731801 -0.0259123 -6.1415e-10 2.14804e-09 -1.74579e-09 -2.22167 -0.733487 0.20892 -2.03217e-16 0.0 -3.88251e-19 5.49559 -48.8313 9.40951 -0.139651 25.4594 0.353091 -2.05855 -2.98593 -10.2598 2.03217e-16 0.0 3.88251e-19 -3.73986 -17.8134 -6.93787 0.0657141 22.2392 -0.441008 0.295723 -0.642819 -5.95102
